<svg id="Layer_1" data-name="Layer 1" xmlns="http://www.w3.org/2000/svg" viewBox="0 0 382 120">
  <defs>
    <style>
      .cls-1 {
        fill: #fff;
      }

      .cls-2 {
        fill: #efd11e;
      }
    </style>
  </defs>
  <g>
    <path class="cls-1" d="M120.881,41.691h-9.594L97.342,77.423h9.789l2.449-6.105h12.706l2.307,6.105h9.841ZM112.124,64.34l3.81-11.442h.094L119.8,64.34Z"/>
    <path class="cls-1" d="M84.414,41.663H70.294v35.76h9.594V65.212H84.74c8.052,0,12.57-3.5,12.57-11.874C97.31,45.2,92.039,41.663,84.414,41.663ZM81.068,58.235h-1.18V49.5h1.18c3.582,0,6.641-.068,6.641,4.407C87.709,58.235,84.414,58.235,81.068,58.235Z"/>
    <polygon class="cls-1" points="264.791 63.468 274.385 63.487 274.385 55.618 264.791 55.618 264.791 49.513 277.874 49.513 277.874 41.663 255.197 41.663 255.197 77.423 277.874 77.423 277.874 68.701 264.791 68.701 264.791 63.468"/>
    <polygon class="cls-1" points="181.061 51.257 189.783 51.257 189.835 77.423 199.377 77.423 199.377 51.257 208.099 51.257 208.099 41.663 181.061 41.663 181.061 51.257"/>
    <polygon class="cls-1" points="237.753 55.618 224.671 55.618 224.671 41.663 215.077 41.663 215.077 77.423 224.671 77.423 224.671 63.468 237.753 63.468 237.753 77.423 247.347 77.423 247.347 41.663 237.753 41.663 237.753 55.618"/>
    <path class="cls-1" d="M300.987,51.257a8.286,8.286,0,1,1-8.286,8.286,8.3,8.3,0,0,1,8.286-8.286m0-9.594a17.88,17.88,0,1,0,17.88,17.88,17.88,17.88,0,0,0-17.88-17.88Z"/>
    <polygon class="cls-1" points="350.231 61.691 334.866 41.663 325.844 41.663 325.844 77.423 335.469 77.423 335.438 57.363 350.122 77.423 359.859 77.423 359.859 41.663 350.265 41.663 350.231 61.691"/>
    <polygon class="cls-1" points="164.456 61.691 149.09 41.663 140.069 41.663 140.069 77.423 149.694 77.423 149.663 57.363 164.347 77.423 174.084 77.423 174.084 41.663 164.49 41.663 164.456 61.691"/>
  </g>
  <g>
    <polygon class="cls-2" points="18.686 5.849 28.288 28.983 16.068 28.983 20.109 39.166 44.874 39.166 18.686 5.849"/>
    <polygon class="cls-2" points="51.248 90.078 47.16 79.896 41.491 79.896 29.707 51.252 24.629 51.252 36.406 79.896 22.008 79.896 48.629 113.216 39.03 90.078 51.248 90.078"/>
  </g>
  <g>
    <path class="cls-1" d="M54.545,49.354c.3,0,1-.384,1-3.922s-.7-3.917-1-3.917H37.487l3.237,7.839Z"/>
    <path class="cls-1" d="M44.607,58.753l11.461,0c.3,0,1-.384,1-3.92s-.7-3.918-1-3.918l-14.7,0Z"/>
    <g>
      <path class="cls-1" d="M54.545,69.713H39.132l3.237,7.836H54.545c.3,0,1-.38,1-3.916S54.845,69.713,54.545,69.713Z"/>
      <path class="cls-1" d="M56.068,60.314H35.25l3.237,7.838H56.068c.3,0,1-.384,1-3.918S56.371,60.314,56.068,60.314Z"/>
    </g>
    <path class="cls-1" d="M54.545,69.713H39.132l3.237,7.836H54.545c.3,0,1-.38,1-3.916S54.845,69.713,54.545,69.713Z"/>
    <path class="cls-1" d="M56.068,60.314H35.25l3.237,7.838H56.068c.3,0,1-.384,1-3.918S56.371,60.314,56.068,60.314Z"/>
    <path class="cls-1" d="M25.823,58.811l-3.655-9.463H30.72l3.955,9.476,8.172-.071-7.12-17.238H17.949c-1.369,0-2.122,0-2.738,2.04-.74,2.435-.825,7.031-.825,15.976s.085,13.541.825,15.975c.616,2.04,1.369,2.04,2.738,2.04l15.6,0-7.727-18.8Z"/>
  </g>
  <g>
    <path class="cls-1" d="M71.743,102.369l.117-.849,1.666-.117c.216-.017.266-.083.3-.333l1.333-9.577H72.592c-.183,0-.233.016-.282.183l-.45,1.449H70.81l.383-2.815h9.8L80.6,93.125H79.555l-.067-1.449c-.016-.167-.049-.183-.233-.183H76.673l-1.349,9.577c-.033.233-.033.3.217.316l1.815.134-.116.849Z"/>
    <path class="cls-1" d="M86.8,102.369l-.033-.05.3-1.649.517-3.7a6.474,6.474,0,0,0,.083-.983c0-.467-.117-1.05-.783-1.05-.933,0-2.149.95-3.248,1.916l-.583,4.231c-.033.266-.017.3.233.333l1.033.133-.117.816H80.319l.117-.833.816-.116c.25-.034.283-.067.316-.333l1.383-9.894c.033-.217-.017-.317-.15-.35l-.9-.25.116-.8H84.6l-.8,5.631c1.016-.85,2.148-1.783,3.481-1.783A1.733,1.733,0,0,1,89.2,95.59a7.807,7.807,0,0,1-.083,1.033l-.633,4.464c-.033.266-.017.3.233.333l.917.133-.117.816Z"/>
    <path class="cls-1" d="M97.39,101.87a6.682,6.682,0,0,1-3,.7c-2.415,0-3.264-1.432-3.264-3.431,0-3.015,1.915-5.5,4.663-5.5,1.716,0,2.349.883,2.349,2,0,2.515-3.631,3.132-5.48,3.331,0,1.483.4,2.382,2.065,2.382a5.568,5.568,0,0,0,2.383-.616Zm-.682-6.146c0-.517-.333-.867-1.1-.867-1.5,0-2.515,1.383-2.848,2.981C93.86,97.706,96.708,97.272,96.708,95.724Z"/>
    <path class="cls-1" d="M111.879,102.369,110.8,94.757l-3.215,7.612h-1.849L104.5,91.643c-.033-.25-.083-.3-.3-.35l-.933-.167.15-.816h4.2l-.116.816-1.466.167.949,9.377,3.315-7.928h1.665l1.117,8.095,3.531-9.544-1.416-.167.117-.816h4l-.133.816-.866.15c-.2.033-.317.117-.433.416l-4.031,10.677Z"/>
    <path class="cls-1" d="M124.386,101.87a6.685,6.685,0,0,1-3,.7c-2.415,0-3.265-1.432-3.265-3.431,0-3.015,1.916-5.5,4.664-5.5,1.716,0,2.349.883,2.349,2,0,2.515-3.632,3.132-5.48,3.331,0,1.483.4,2.382,2.065,2.382a5.567,5.567,0,0,0,2.382-.616Zm-.683-6.146c0-.517-.333-.867-1.1-.867-1.5,0-2.516,1.383-2.849,2.981C120.855,97.706,123.7,97.272,123.7,95.724Z"/>
    <path class="cls-1" d="M126.317,102.369a22.788,22.788,0,0,0,.516-2.381l1.249-8.8c.034-.184,0-.3-.166-.35l-.9-.25.117-.8h2.6l-.782,5.564a5.373,5.373,0,0,1,3.3-1.716c1.349,0,2.332.9,2.332,3.215,0,2.4-1,5.68-4.048,5.68a3.317,3.317,0,0,1-2.5-1.066l-.049.016-.2.883Zm1.949-2.115a2.968,2.968,0,0,0,2.082,1.1c1.982,0,2.681-2.465,2.681-4.264,0-1.566-.5-2.1-1.282-2.1-1.016,0-2.315,1.183-2.982,1.833Z"/>
    <path class="cls-1" d="M136.059,97.605c0-4.314,2.282-7.512,6.6-7.512,3.281,0,4.681,2.132,4.681,4.964,0,4.647-2.466,7.512-6.5,7.512C137.508,102.569,136.059,100.5,136.059,97.605Zm9.694-2.331a5.98,5.98,0,0,0-.183-1.516,2.91,2.91,0,0,0-3.1-2.382c-2.648,0-4.747,2-4.814,5.947a6.163,6.163,0,0,0,.183,1.532,2.943,2.943,0,0,0,3.2,2.432C143.638,101.287,145.7,99.321,145.753,95.274Z"/>
    <path class="cls-1" d="M148.266,105.9l-.066-.067.482-2.815,1.066-7.8q.051-.3-.15-.35l-.882-.267.1-.8h2.565l-.233,1.549a5.483,5.483,0,0,1,3.381-1.716c1.316,0,2.3.933,2.3,3.265,0,2.6-1.2,5.663-4,5.663a3.589,3.589,0,0,1-2.482-1.016l-.4,3.015c-.033.25-.016.3.2.316l1.533.134-.117.883Zm2.265-5.647a2.89,2.89,0,0,0,2.116,1.1c1.932,0,2.648-2.5,2.648-4.3,0-1.5-.516-2.066-1.249-2.066-1.066,0-2.332,1.166-3.032,1.833Z"/>
    <path class="cls-1" d="M163.222,96.173l-.05-1.033c-.017-.183-.05-.249-.233-.316a3.59,3.59,0,0,0-1.1-.117c-.967,0-1.8.383-1.8,1.283,0,.766.65,1.1,1.6,1.432,1.067.367,2.366.85,2.366,2.432,0,1.766-1.449,2.715-3.348,2.715a7.07,7.07,0,0,1-3-.549l.316-2.116,1.033.067.05,1.083a.236.236,0,0,0,.167.249,3.777,3.777,0,0,0,1.515.233c1.1,0,1.833-.516,1.833-1.432,0-.9-.634-1.182-1.7-1.532-1.082-.35-2.248-.817-2.248-2.315,0-1.8,1.449-2.616,3.4-2.616a6.948,6.948,0,0,1,2.548.45l-.3,2.149Z"/>
    <path class="cls-1" d="M169.1,102.369l.117-.816,1.049-.116c.233-.034.283-.084.317-.334l1.316-9.527c.033-.25,0-.317-.234-.333l-1-.117.1-.816h4.964c2.631,0,3.564,1.333,3.564,3.048,0,3.132-1.932,4.464-5.047,4.464H172.5l-.45,3.265c-.016.266,0,.316.217.333l2.315.133-.1.816Zm5.114-5.746c1.882,0,3.514-.483,3.514-3.132,0-1.416-.882-2-2.548-2h-1.8l-.716,5.13Z"/>
    <path class="cls-1" d="M180.307,102.369l-.033-.066.35-1.916,1.3-9.211c.034-.183-.017-.3-.166-.35l-.883-.233.116-.8h2.632l-1.6,11.294c-.033.266-.017.3.233.333l.983.133-.117.816Z"/>
    <path class="cls-1" d="M190.317,102.369l.2-1.5-.05-.017a4.6,4.6,0,0,1-3.182,1.716c-1.582,0-2.5-1.016-2.5-3.181,0-2.565,1.066-5.747,4.181-5.747a3.679,3.679,0,0,1,2.365.933l.266-.766H193a19.924,19.924,0,0,0-.433,2.048l-.733,5.247c-.033.267-.017.3.233.334l.816.116-.133.816Zm.8-6.6a3.187,3.187,0,0,0-2.1-.9c-2.082,0-2.715,2.648-2.715,4.38,0,1.5.566,2.016,1.432,2.016,1,0,2.1-1.066,2.882-1.916Z"/>
    <path class="cls-1" d="M199.593,102.053a6.139,6.139,0,0,1-2.332.516c-1.4,0-2.032-.566-2.032-1.716,0-.149.017-.349.033-.533l.716-5.2c.017-.1.017-.167-.1-.167h-1.2l.15-.983c1.2-.183,1.749-.7,2.165-2.365h.983l-.3,2.032c-.016.117-.016.167.117.167h2.382l-.15,1.149h-2.532l-.666,4.914a4.04,4.04,0,0,0-.05.6c0,.6.25.883,1.016.883a4.449,4.449,0,0,0,1.549-.35Z"/>
    <path class="cls-1" d="M200.857,105.9l1.533-10.777c.017-.1,0-.167-.117-.167h-1.166l.167-1.149h1.3l.217-1.516c.266-1.9,1.282-2.682,2.9-2.682a4.025,4.025,0,0,1,2.465.8l-.633,1.016a3.259,3.259,0,0,0-1.749-.616c-.983,0-1.382.566-1.532,1.649l-.167,1.182c-.017.117-.017.167.117.167h2.682l-.167,1.149h-2.8L202.34,105.9Z"/>
    <path class="cls-1" d="M206.87,99.088c0-3.148,1.649-5.447,4.73-5.447,2.482,0,3.382,1.533,3.382,3.481,0,3.332-1.649,5.447-4.648,5.447A3.13,3.13,0,0,1,206.87,99.088Zm6.562-1.982c0-1.516-.7-2.249-2-2.249-1.766,0-3.032,1.349-3.032,4.164,0,1.566.7,2.4,2.065,2.4C212.2,101.42,213.432,100.021,213.432,97.106Z"/>
    <path class="cls-1" d="M215.679,102.369l.117-.833.833-.1c.216-.017.249-.1.283-.334l.816-5.879c.033-.183-.017-.317-.15-.35l-.9-.267.116-.8h2.466l-.217,1.682a3.187,3.187,0,0,1,3.864-1.7l-.333,2.515-1.166-.049-.033-1.133c0-.134-.017-.167-.167-.167-.433,0-1.282.716-2.2,1.782l-.6,4.364c-.033.267-.017.317.233.334l1.482.116-.116.816Z"/>
    <path class="cls-1" d="M234.067,102.369l-.033-.033.349-2.2.433-3.164a9.156,9.156,0,0,0,.117-1.2c0-.533-.183-.766-.683-.766-.816,0-1.766.783-2.915,1.849l-.6,4.231c-.033.266-.016.3.234.333l.933.133-.134.816h-2.7l-.017-.033.334-2.132.449-3.231c.066-.517.133-.917.133-1.183,0-.366-.083-.8-.649-.8-.933,0-1.832.817-3.048,1.866l-.583,4.231c-.034.266-.017.3.233.333l1.033.133-.117.816h-3.881l.116-.833.8-.116c.233-.034.283-.083.316-.333l.8-5.863c.033-.183,0-.3-.15-.35l-.883-.267.117-.8h2.515l-.233,1.649c1.432-1.2,2.182-1.8,3.381-1.8,1.166,0,1.749.566,1.666,1.832.9-.816,2.048-1.849,3.281-1.849,1.316,0,1.749.65,1.766,1.749a8.238,8.238,0,0,1-.117,1.2l-.616,4.5c-.033.266-.017.3.233.333l.916.133-.116.816Z"/>
    <path class="cls-1" d="M241.892,102.369l.116-.8,1.033-.117c.233-.033.283-.083.317-.333l1.315-9.528c.034-.249,0-.316-.216-.333l-1.016-.133.117-.816h4.863c2.432,0,3.2,1.132,3.2,2.548a3.15,3.15,0,0,1-2.432,3.2l-.016.067a2.412,2.412,0,0,1,2.4,2.532c0,2.8-2.015,3.714-4.864,3.714Zm4.8-1.216c1.9,0,3.331-.349,3.331-2.482,0-1.365-1.033-1.881-2.4-1.881h-2.2l-.583,4.363Zm.35-5.53c1.415,0,3.048-.449,3.048-2.531,0-1.233-.783-1.566-2.249-1.566h-1.682l-.55,4.1Z"/>
    <path class="cls-1" d="M258.813,102.369l.25-1.649c-.9.766-2.182,1.833-3.365,1.833-1.382,0-2.1-.533-2.1-2.016,0-.25.033-.65.066-.949l.65-4.5c.033-.266.016-.3-.234-.333l-.866-.133.133-.816h2.566l.05.066-.75,5.347a5.965,5.965,0,0,0-.083,1.016c0,.667.2.95.883.95,1.016,0,2.032-.867,3.148-1.849l.566-4.248c.033-.266.017-.3-.233-.333l-.966-.133.116-.816h2.715l.051.066L260.4,101.1c-.033.184.017.3.15.317l.916.15-.1.8Z"/>
    <path class="cls-1" d="M263.558,102.369l-.033-.066.35-1.916.749-5.2c.033-.183-.017-.3-.183-.349l-.883-.234.116-.8h2.616l-1.016,7.279c-.034.266-.017.3.233.333l.982.133-.116.816Zm1.049-11.293a1.163,1.163,0,0,1,1.233-1.232.829.829,0,0,1,.933.882,1.172,1.172,0,0,1-1.233,1.233A.837.837,0,0,1,264.607,91.076Z"/>
    <path class="cls-1" d="M268.4,102.369l-.033-.066.35-1.916,1.3-9.211c.033-.183-.017-.3-.166-.35l-.883-.233.116-.8h2.632l-1.6,11.294c-.033.266-.017.3.233.333l.983.133-.117.816Z"/>
    <path class="cls-1" d="M278.031,102.053a6.139,6.139,0,0,1-2.332.516c-1.4,0-2.032-.566-2.032-1.716,0-.149.017-.349.033-.533l.716-5.2c.017-.1.017-.167-.1-.167h-1.2l.15-.983c1.2-.183,1.749-.7,2.165-2.365h.983l-.3,2.032c-.016.117-.016.167.117.167h2.382l-.15,1.149h-2.532l-.666,4.914a4.04,4.04,0,0,0-.05.6c0,.6.25.883,1.016.883a4.449,4.449,0,0,0,1.549-.35Z"/>
    <path class="cls-1" d="M283.276,105.9l1.532-10.777c.017-.1,0-.167-.117-.167h-1.165l.166-1.149h1.3l.217-1.516c.267-1.9,1.282-2.682,2.9-2.682a4.022,4.022,0,0,1,2.465.8l-.632,1.016a3.266,3.266,0,0,0-1.749-.616c-.983,0-1.383.566-1.533,1.649l-.167,1.182c-.016.117-.016.167.117.167h2.682l-.167,1.149h-2.8L284.758,105.9Z"/>
    <path class="cls-1" d="M289.287,99.088c0-3.148,1.65-5.447,4.731-5.447,2.482,0,3.381,1.533,3.381,3.481,0,3.332-1.648,5.447-4.647,5.447A3.13,3.13,0,0,1,289.287,99.088Zm6.563-1.982c0-1.516-.7-2.249-2-2.249-1.766,0-3.032,1.349-3.032,4.164,0,1.566.7,2.4,2.065,2.4C294.618,101.42,295.85,100.021,295.85,97.106Z"/>
    <path class="cls-1" d="M298.1,102.369l.117-.833.833-.1c.216-.017.249-.1.282-.334l.817-5.879c.033-.183-.017-.317-.15-.35l-.9-.267.117-.8h2.465l-.216,1.682a3.187,3.187,0,0,1,3.864-1.7l-.333,2.515-1.166-.049-.033-1.133c0-.134-.017-.167-.167-.167-.433,0-1.283.716-2.2,1.782l-.6,4.364c-.033.267-.016.317.234.334l1.483.116-.117.816Z"/>
    <path class="cls-1" d="M315.95,102.369l.117-.782,1.416-.15-.517-2.749H312.4l-1.249,2.749,1.282.15-.134.782h-3.714l.117-.782.716-.184a.727.727,0,0,0,.484-.383l5.03-10.71h1.881l2.2,10.81c.033.167.132.233.349.283l.717.184-.117.782Zm-.316-10.71-2.7,5.813h3.831Z"/>
    <path class="cls-1" d="M326.909,100.8a4.831,4.831,0,0,1-3.182,1.732c-1.582,0-2.532-.983-2.532-3.148,0-2.449,1-5.747,4.148-5.747a3.782,3.782,0,0,1,2.415.933l.266-.766h1.4a20.63,20.63,0,0,0-.467,2.182l-.933,6.946a3.347,3.347,0,0,1-3.647,3.148,6.8,6.8,0,0,1-3.248-.733l.549-1.083a5.519,5.519,0,0,0,2.532.65,2.148,2.148,0,0,0,2.4-2.082Zm.632-5.014a3.08,3.08,0,0,0-2.115-.916c-2.1,0-2.715,2.682-2.715,4.414,0,1.482.583,1.949,1.416,1.949,1.05,0,2.132-1.05,2.915-1.9Z"/>
    <path class="cls-1" d="M331.171,102.369l-.033-.066.349-1.916.75-5.2c.034-.183-.017-.3-.183-.349l-.883-.234.117-.8H333.9l-1.016,7.279c-.034.266-.017.3.233.333l.983.133-.117.816Zm1.049-11.293a1.163,1.163,0,0,1,1.233-1.232.829.829,0,0,1,.933.882,1.172,1.172,0,0,1-1.233,1.233A.838.838,0,0,1,332.22,91.076Z"/>
    <path class="cls-1" d="M336.017,102.369l-.033-.066.35-1.916,1.3-9.211c.033-.183-.017-.3-.167-.35l-.883-.233.117-.8h2.632l-1.6,11.294c-.033.266-.016.3.233.333l.983.133-.117.816Z"/>
    <path class="cls-1" d="M340.98,102.369l-.033-.066.349-1.916.75-5.2c.034-.183-.017-.3-.183-.349l-.883-.234.117-.8h2.615l-1.016,7.279c-.034.266-.017.3.233.333l.983.133-.117.816Zm1.049-11.293a1.163,1.163,0,0,1,1.233-1.232.829.829,0,0,1,.933.882,1.172,1.172,0,0,1-1.233,1.233A.837.837,0,0,1,342.029,91.076Z"/>
    <path class="cls-1" d="M350.557,102.053a6.149,6.149,0,0,1-2.333.516c-1.4,0-2.031-.566-2.031-1.716,0-.149.016-.349.033-.533l.716-5.2c.017-.1.017-.167-.1-.167h-1.2l.15-.983c1.2-.183,1.749-.7,2.165-2.365h.983l-.3,2.032c-.016.117-.016.167.117.167h2.381l-.15,1.149h-2.531l-.667,4.914a4.166,4.166,0,0,0-.049.6c0,.6.25.883,1.016.883a4.449,4.449,0,0,0,1.549-.35Z"/>
    <path class="cls-1" d="M354.653,102.12l-1.8-7.079c-.05-.2-.117-.234-.284-.284l-.682-.15.15-.8H354.2l.083.1.383,2.1,1,4.314,2.765-5.546-1.033-.167.1-.8h2.648l.117.233-4.931,9.611c-.849,1.632-1.532,2.432-3.114,2.432a3.432,3.432,0,0,1-2.149-.733l.617-.95a2.585,2.585,0,0,0,1.5.483c.933,0,1.332-.666,1.832-1.582Z"/>
  </g>
  <path class="cls-1" d="M366.71,42.306h-1.189v-.76h3.347v.76h-1.189v3.469h-.969Zm4.581,3.469-1.068-3.238v3.238h-.848V41.546h1.288l1.047,3.26,1.046-3.26H374v4.229h-.881V42.537l-1.035,3.238Z"/>
</svg>
