<svg id="Layer_1" data-name="Layer 1" xmlns="http://www.w3.org/2000/svg" viewBox="0 0 359.999 361.674">
  <defs>
    <style>
      .cls-1 {
        fill: #efd11e;
      }

      .cls-2 {
        fill: #231f20;
      }
    </style>
  </defs>
  <title>_</title>
  <g>
    <polygon class="cls-1" points="129.62 33.809 155.73 96.719 122.499 96.719 133.489 124.409 200.833 124.409 129.62 33.809"/>
    <polygon class="cls-1" points="218.167 262.858 207.051 235.168 191.635 235.168 159.589 157.276 145.779 157.276 177.806 235.168 138.652 235.168 211.046 325.778 184.94 262.858 218.167 262.858"/>
  </g>
  <g>
    <path d="M227.133,152.113c.816,0,2.717-1.044,2.717-10.665s-1.9-10.649-2.717-10.649H180.745l8.8,21.314Z"/>
    <path d="M200.107,177.673l31.166,0c.826,0,2.723-1.044,2.723-10.66s-1.9-10.654-2.723-10.654l-39.97,0Z"/>
    <g>
      <path d="M227.133,207.478H185.22l8.8,21.31h33.111c.816,0,2.717-1.034,2.717-10.65S227.949,207.478,227.133,207.478Z"/>
      <path d="M231.273,181.918H174.662l8.8,21.315h47.807c.826,0,2.723-1.044,2.723-10.655S232.1,181.918,231.273,181.918Z"/>
    </g>
    <path d="M227.133,207.478H185.22l8.8,21.31h33.111c.816,0,2.717-1.034,2.717-10.65S227.949,207.478,227.133,207.478Z"/>
    <path d="M231.273,181.918H174.662l8.8,21.315h47.807c.826,0,2.723-1.044,2.723-10.655S232.1,181.918,231.273,181.918Z"/>
    <path d="M149.028,177.833l-9.94-25.735h23.257L173.1,177.865l22.222-.192L175.96,130.8H127.616c-3.724,0-5.77,0-7.446,5.546-2.013,6.62-2.245,19.119-2.245,43.443s.232,36.823,2.245,43.443c1.676,5.547,3.722,5.547,7.446,5.547l42.413.007-21.014-51.127Z"/>
  </g>
  <path class="cls-2" d="M237.553,223.186H235.8v-1.118h4.926v1.118h-1.75v5.1h-1.425Zm6.74,5.1-1.572-4.764v4.764h-1.248v-6.222h1.9l1.539,4.8,1.539-4.8h1.831v6.222h-1.3v-4.764l-1.523,4.764Z"/>
</svg>
